# xmcd
#
# Track frame offsets:
#	150
#	30959
#	49910
#	74186
#	87830
#	101255
#	117768
#	142932
#	161857
#	179874
#
# Disc length: 2630
#
# Revision: 5
# Processed by: cddbd v1.5.1PL0 Copyright (c) Steve Scherf et al.
# Submitted via: CDex 1.50Beta7
# Normalized: r4:DSETVAR1,TDELIM( - )
#
DISCID=890a440a
DTITLE=Various Artist - A Celebration of Blues: Blues From Mississippi
DYEAR=1900
DGENRE=Blues
TTITLE0=I'm A Blues Man - Bobby Bland
TTITLE1=I Just Can't Get Enough - Mike Griffin
TTITLE2=Went Too Far, Stayed Too Long - James Peterson
TTITLE3=Hobo Train - Keri Leigh
TTITLE4=Mississippi - The Beat Daddy's
TTITLE5=The More You Lie To Me - Artie White
TTITLE6=Ain't Nothin' You Can Do - Latimore
TTITLE7=Bottle Up And Go - Bobby Rush
TTITLE8=Don't Waste My Time - Ernie Johnson
TTITLE9=I Got To Find A Black Cat Bone - Cicero Blake
EXTD=The Excelsior Label, Released 2000\n
EXTT0=
EXTT1=
EXTT2=
EXTT3=
EXTT4=
EXTT5=
EXTT6=
EXTT7=
EXTT8=
EXTT9=
PLAYORDER=
